HIERARCHY
ROOT Hips
{
	OFFSET -3.958830 18.904000 13.208200
	CHANNELS 6 Xposition Yposition Zposition Zrotation Yrotation Xrotation 
	JOINT LHipJoint
	{
		OFFSET 0.000000 0.000000 0.000000
		CHANNELS 3 Zrotation Yrotation Xrotation
		JOINT LeftUpLeg
		{
			OFFSET 1.800000 -1.400000 0.085000
			CHANNELS 3 Zrotation Yrotation Xrotation
			JOINT LeftLeg
			{
				OFFSET 2.215000 -6.000000 0.000000
				CHANNELS 3 Zrotation Yrotation Xrotation
				JOINT LeftFoot
				{
					OFFSET 2.500000 -6.900000 0.000000
					CHANNELS 3 Zrotation Yrotation Xrotation
					JOINT LeftToeBase
					{
						OFFSET 0.200000 -0.500000 1.950000
						CHANNELS 3 Zrotation Yrotation Xrotation
						End Site
						{
							OFFSET 0.000000 0.000000 0.000000
						}
					}
				}
			}
		}
	}
	JOINT RHipJoint
	{
		OFFSET 0.000000 0.000000 0.000000
		CHANNELS 3 Zrotation Yrotation Xrotation
		JOINT RightUpLeg
		{
			OFFSET -1.800000 -1.400000 0.085000
			CHANNELS 3 Zrotation Yrotation Xrotation
			JOINT RightLeg
			{
				OFFSET -2.215000 -6.000000 0.000000
				CHANNELS 3 Zrotation Yrotation Xrotation
				JOINT RightFoot
				{
					OFFSET -2.500000 -6.900000 0.000000
					CHANNELS 3 Zrotation Yrotation Xrotation
					JOINT RightToeBase
					{
						OFFSET -0.200000 -0.500000 1.950000
						CHANNELS 3 Zrotation Yrotation Xrotation
						End Site
						{
							OFFSET 0.000000 0.000000 0.000000
						}
					}
				}
			}
		}
	}
	JOINT LowerBack
	{
		OFFSET 0.000000 0.000000 0.000000
		CHANNELS 3 Zrotation Yrotation Xrotation
		JOINT Spine
		{
			OFFSET -0.087000 1.940000 -0.288900
			CHANNELS 3 Zrotation Yrotation Xrotation
			JOINT Spine1
			{
				OFFSET 0.000000 1.950000 0.060000
				CHANNELS 3 Zrotation Yrotation Xrotation
				JOINT Neck
				{
					OFFSET 0.000000 0.000000 0.000000
					CHANNELS 3 Zrotation Yrotation Xrotation
					JOINT Neck1
					{
						OFFSET 0.000000 1.600000 0.340000
						CHANNELS 3 Zrotation Yrotation Xrotation
						JOINT Head
						{
							OFFSET 0.000000 1.667000 -0.240000
							CHANNELS 3 Zrotation Yrotation Xrotation
							End Site
							{
								OFFSET 0.000000 0.000000 0.000000
							}
						}
					}
				}
				JOINT LeftShoulder
				{
					OFFSET 0.000000 0.000000 0.000000
					CHANNELS 3 Zrotation Yrotation Xrotation
					JOINT LeftArm
					{
						OFFSET 2.700000 1.550000 -0.730000
						CHANNELS 3 Zrotation Yrotation Xrotation
						JOINT LeftForeArm
						{
							OFFSET 5.450000 0.000000 0.000000
							CHANNELS 3 Zrotation Yrotation Xrotation
							JOINT LeftHand
							{
								OFFSET 3.450000 0.000000 0.000000
								CHANNELS 3 Zrotation Yrotation Xrotation
								JOINT LeftHandIndex1
								{
									OFFSET 0.750000 0.000000 0.000000
									CHANNELS 3 Zrotation Yrotation Xrotation
									End Site
									{
										OFFSET 0.000000 0.000000 0.000000
									}
								}
							}
						}
					}
				}
				JOINT RightShoulder
				{
					OFFSET 0.000000 0.000000 0.000000
					CHANNELS 3 Zrotation Yrotation Xrotation
					JOINT RightArm
					{
						OFFSET -2.700000 1.550000 -0.730000
						CHANNELS 3 Zrotation Yrotation Xrotation
						JOINT RightForeArm
						{
							OFFSET -5.450000 0.000000 0.000000
							CHANNELS 3 Zrotation Yrotation Xrotation
							JOINT RightHand
							{
								OFFSET -3.450000 0.000000 0.000000
								CHANNELS 3 Zrotation Yrotation Xrotation
								JOINT RightHandIndex1
								{
									OFFSET -0.750000 0.000000 0.000000
									CHANNELS 3 Zrotation Yrotation Xrotation
									End Site
									{
										OFFSET 0.000000 0.000000 0.000000
									}
								}
							}
						}
					}
				}
			}
		}
	}
}
MOTION
Frames: 14
Frame Time: 0.016667
0.967270 16.460300 -1.916370 0.837606 0.056100 2.971587 -14.925454 12.516265 2.669301 5.549143 -1.879904 -14.899127 -8.569290 5.697182 11.159486 -0.103898 3.645378 3.343846 -0.202150 -0.268300 -0.157420 18.407234 -11.267177 2.943804 -20.819226 1.010114 -8.225433 0.551091 -3.208706 -0.020059 -0.110555 -4.086694 2.960050 -0.086510 0.319790 0.107190 -4.159886 0.378185 -7.195043 8.721862 3.422816 1.942628 -1.395422 3.306264 0.254469 2.305351 2.621807 -8.321335 4.269330 -1.073263 29.745634 -1.721030 1.280890 2.436290 -34.945753 -9.980477 5.129352 -51.135773 7.609734 -3.557135 -6.824483 3.471609 -0.716174 -4.092152 2.867358 -0.021660 0.249380 -0.165190 0.020220 30.176333 10.527659 4.110360 52.839946 1.976140 -3.020659 5.545422 4.451211 -0.240517 2.675143 -1.267986 -0.157480 0.064440 0.161410 0.009550 
0.976900 16.452730 -1.912940 0.794874 -0.119560 3.046926 -14.932137 12.492095 2.661611 5.446469 -1.909251 -15.014325 -8.490908 5.685207 11.278360 -0.108959 3.627747 3.347748 -0.195640 -0.259240 -0.153660 18.401385 -11.276032 2.955553 -20.955581 1.045750 -8.348252 0.650509 -3.213503 -0.045706 -0.113039 -4.092016 2.954251 -0.081090 0.318120 0.109240 -4.139577 0.452340 -7.189016 8.588120 3.657055 1.979378 -0.980051 3.502576 -0.026901 2.353097 3.252243 -8.321058 5.466992 -1.264572 28.995910 -1.182480 1.113850 1.989440 -35.172079 -9.945193 5.156095 -51.454927 7.976834 -3.742500 -6.844830 3.350415 -0.725395 -4.091107 2.869592 -0.020460 0.248360 -0.162480 0.021020 30.326046 10.120954 3.977513 52.550002 1.638699 -3.060933 5.006780 4.071846 -0.241557 2.677257 -1.268089 -0.155710 0.063430 0.157970 0.008830 
0.996720 16.439250 -1.904410 0.764444 -0.218848 3.296904 -14.941496 12.420510 2.643077 5.139965 -1.998604 -15.311969 -8.304516 5.609067 11.346884 -0.125851 3.572460 3.364657 -0.183720 -0.242790 -0.146410 18.401888 -11.283474 2.978814 -21.150732 1.128296 -8.390817 0.623683 -3.185662 -0.315520 -0.123138 -4.120385 2.939046 -0.068720 0.317900 0.113230 -4.126219 0.615018 -7.156432 8.380967 4.107865 1.926343 -0.409467 3.890901 -0.525243 2.445607 4.348315 -8.254449 7.579338 -1.605226 27.144180 -0.190300 0.787870 0.961530 -35.378530 -9.644697 5.097122 -51.903013 8.568734 -4.079771 -7.068244 3.139824 -0.767119 -4.094044 2.873225 -0.020390 0.248590 -0.160570 0.021570 30.355235 9.158848 3.706461 52.530289 0.867911 -3.259390 4.216620 3.674029 -0.252718 2.675321 -1.271315 -0.154250 0.063700 0.153620 0.006960 
1.021360 16.428600 -1.893820 0.788333 -0.142054 3.606693 -14.948179 12.326914 2.622741 4.724877 -2.093032 -15.521217 -8.103968 5.482457 11.222579 -0.141196 3.491806 3.389626 -0.164650 -0.217490 -0.131190 18.407342 -11.295116 3.002941 -21.547197 1.201451 -8.379775 0.732320 -3.198143 -0.521156 -0.140079 -4.170571 2.911560 -0.053930 0.307630 0.120110 -4.127116 0.820316 -7.116274 8.256078 4.579317 1.773148 0.220170 4.279941 -0.972514 2.555467 5.521658 -8.319328 9.841470 -2.231790 25.075275 0.659490 0.298270 -0.288880 -35.476484 -9.529021 5.116811 -52.715915 9.021876 -4.414457 -7.238677 3.007509 -0.794663 -4.093701 2.878590 -0.019330 0.244400 -0.151050 0.021770 30.204511 8.372665 3.524539 52.680236 0.180847 -3.316009 3.534658 2.890954 -0.231583 2.680899 -1.278509 -0.146560 0.058850 0.142520 0.005040 
1.048280 16.422440 -1.878620 0.980240 -0.189782 3.901659 -14.948234 12.199185 2.603792 4.107182 -2.192136 -15.624466 -7.989353 5.352347 10.998617 -0.142397 3.397252 3.419437 -0.146830 -0.190060 -0.115830 18.423015 -11.315350 3.034957 -22.032214 1.307573 -8.385847 0.486635 -3.157517 -0.908817 -0.161642 -4.224148 2.882020 -0.043160 0.292260 0.129670 -4.151847 1.104683 -7.074895 8.039299 5.082293 1.521122 0.653095 4.702406 -1.371828 2.696537 6.730215 -8.502015 12.237697 -2.932748 23.092462 1.468940 -0.179250 -1.316100 -35.603387 -9.552579 5.291266 -53.889774 9.647118 -4.885093 -6.876164 2.574706 -0.759559 -4.089790 2.884696 -0.023040 0.238960 -0.135980 0.022200 29.964242 7.809453 3.334228 53.432313 -0.078884 -3.204603 3.148253 1.922246 -0.179770 2.696269 -1.291467 -0.131200 0.046410 0.126470 0.007140 
1.082490 16.416520 -1.863580 1.192039 0.197888 4.175854 -14.954584 12.090250 2.593999 3.458975 -2.312528 -15.847587 -7.878887 5.223785 10.781436 -0.158415 3.321417 3.447357 -0.128350 -0.162460 -0.106810 18.433484 -11.303529 3.062976 -22.573449 1.449219 -8.135005 0.253140 -3.122077 -1.332118 -0.181073 -4.311575 2.846063 -0.022340 0.291290 0.139790 -4.165759 1.285694 -7.036252 8.090448 5.635632 1.357424 1.424520 5.176050 -1.675209 2.671178 7.272166 -8.669612 13.471369 -3.597539 20.572522 1.770720 -0.642900 -2.498940 -35.371979 -9.159690 5.327865 -54.279103 10.790371 -5.708844 -7.387032 1.287574 -0.845550 -4.090211 2.897550 -0.034570 0.246290 -0.135130 0.025770 29.700859 7.218391 3.377188 52.707341 -1.119225 -3.274546 2.666233 1.115514 -0.164225 2.696114 -1.307596 -0.123600 0.043140 0.117530 0.009190 
1.116860 16.417590 -1.841910 1.565377 0.715857 4.466362 -14.944308 11.939468 2.567530 2.530536 -2.389012 -15.705026 -7.623032 5.019704 10.292890 -0.176425 3.227072 3.489296 -0.116740 -0.138390 -0.106050 18.468184 -11.300048 3.109791 -23.165346 1.594556 -7.716325 0.115051 -3.105580 -1.911881 -0.202098 -4.446221 2.795176 0.001280 0.301640 0.150580 -4.240448 1.565207 -6.982874 8.180124 6.415630 0.936033 1.469830 5.907245 -2.104495 2.808761 7.721842 -8.673172 14.654054 -4.325224 17.888134 1.839520 -1.094780 -3.375500 -35.983205 -8.447650 5.149552 -53.668914 12.182326 -6.440675 -7.162542 -0.543083 -0.862398 -4.093717 2.912527 -0.059280 0.265200 -0.143750 0.029770 29.887644 6.413239 3.424157 52.653847 -2.672521 -3.471444 2.374687 0.510828 -0.165764 2.688432 -1.329541 -0.118440 0.042630 0.113660 0.015130 
1.140020 16.428230 -1.838380 1.652882 0.813286 4.624710 -14.936237 11.860499 2.580645 2.170564 -2.416147 -15.601115 -7.727290 4.903258 9.669378 -0.175408 3.172179 3.510317 -0.111610 -0.129850 -0.095820 18.482846 -11.317307 3.126484 -23.209852 1.673586 -7.667631 -0.115041 -3.061514 -2.138470 -0.211171 -4.471499 2.782022 0.004580 0.293030 0.159400 -4.275097 1.740108 -6.984527 8.464457 6.775165 0.794200 1.478471 6.248196 -2.569443 2.949509 8.354467 -8.995674 16.085711 -5.166860 16.435338 1.854220 -1.527320 -3.721290 -36.500820 -8.483404 5.314362 -53.206568 13.450388 -6.895123 -7.354165 -1.139849 -0.896649 -4.083669 2.921710 -0.066860 0.268160 -0.138020 0.026970 29.930463 6.166022 3.602516 52.635918 -3.792179 -3.652535 2.427556 0.289916 -0.166569 2.689857 -1.339428 -0.109830 0.030910 0.105620 0.015490 
1.158220 16.429410 -1.836640 1.803339 0.675025 4.672907 -14.941649 11.822734 2.601375 1.901526 -2.467435 -15.668509 -7.998248 4.926014 9.568489 -0.172836 3.177608 3.509819 -0.114630 -0.138930 -0.084320 18.479891 -11.308326 3.140673 -23.272621 1.741382 -7.631247 -0.415352 -3.011505 -2.394788 -0.218082 -4.485355 2.773184 -0.002090 0.287000 0.167710 -4.261697 1.793532 -7.002598 8.535025 6.667316 0.763579 1.612090 6.121191 -2.904291 3.019929 9.002137 -9.337925 17.471389 -6.013969 15.684512 1.663040 -1.926030 -3.581130 -36.592890 -8.684705 5.611340 -53.124514 14.596838 -7.249893 -7.831717 -0.883145 -0.966898 -4.082746 2.915538 -0.064800 0.271190 -0.133210 0.021750 29.733831 5.965834 3.632701 52.730918 -4.323914 -3.844683 2.305099 0.387274 -0.173351 2.691660 -1.343217 -0.108730 0.020810 0.101860 0.011430 
1.173980 16.435490 -1.834840 1.885475 0.206888 4.736809 -14.963045 11.857433 2.632253 1.658487 -2.499079 -15.681603 -8.122681 4.916572 9.401549 -0.176357 3.175764 3.505233 -0.105140 -0.126930 -0.071220 18.458309 -11.242132 3.148858 -23.239553 1.786032 -7.793119 -0.639811 -2.924862 -2.698678 -0.222237 -4.454992 2.779209 0.005330 0.278050 0.170070 -4.196134 1.619780 -7.040845 8.727529 6.072842 0.980397 1.854001 5.530826 -3.204231 3.122257 9.377238 -9.401224 18.168199 -5.744672 15.362793 1.866880 -1.500680 -3.904500 -36.883371 -8.663704 5.736489 -53.057301 15.372058 -7.489050 -8.588215 -0.827405 -1.055536 -4.076959 2.921689 -0.061550 0.270230 -0.127290 0.017210 29.832566 5.491353 3.447776 52.003225 -4.557160 -4.078998 2.445582 1.483126 -0.264656 2.673755 -1.341661 -0.106690 0.016250 0.098170 0.004050 
1.190580 16.435190 -1.832960 2.024762 -0.176990 4.760107 -14.968977 11.861173 2.656592 1.363761 -2.535365 -15.684077 -8.247497 4.921328 9.346971 -0.191344 3.172506 3.500584 -0.089380 -0.105670 -0.051030 18.452379 -11.215252 3.150444 -23.357535 1.813523 -7.961239 -0.649498 -2.904284 -2.739431 -0.226224 -4.438928 2.779274 0.021740 0.264820 0.168330 -4.176853 1.564324 -7.060152 8.874466 5.858834 1.158302 1.583148 5.351198 -3.523848 3.357242 9.687809 -9.354751 18.796484 -5.488994 14.907645 1.806860 -0.936090 -4.567820 -37.440386 -8.469813 5.686475 -52.531633 15.999426 -7.542913 -9.009696 -0.802806 -1.111513 -4.064529 2.916716 -0.050980 0.268300 -0.117230 0.013730 29.900047 5.013437 3.233931 52.074611 -4.636084 -4.211893 2.269955 1.915112 -0.297428 2.661813 -1.340503 -0.110980 0.017770 0.089430 -0.007650 
1.208280 16.434120 -1.825980 2.001417 -0.464441 4.776055 -14.971386 11.879934 2.677849 1.224850 -2.558031 -15.730532 -8.398949 4.992546 9.568608 -0.180880 3.187103 3.490375 -0.091240 -0.112500 -0.039230 18.443431 -11.212506 3.152023 -23.368170 1.830314 -8.135924 -0.749788 -2.881298 -2.713792 -0.226806 -4.405458 2.784630 0.010800 0.250480 0.171010 -4.157218 1.530351 -7.088070 9.144235 5.820143 1.293283 1.648928 5.368926 -4.098919 3.428154 9.958659 -9.439722 19.355024 -5.528076 14.738765 1.935510 -0.794240 -4.723670 -37.716183 -8.262611 5.660941 -52.635772 16.759625 -7.804105 -9.444550 -0.646832 -1.169054 -4.054280 2.911768 -0.040950 0.259320 -0.107040 0.005920 29.960600 4.622203 3.198854 52.007910 -5.313257 -4.351952 2.297316 1.423418 -0.259625 2.676761 -1.330105 -0.107380 0.006430 0.085980 -0.014140 
1.230230 16.430700 -1.818450 2.023815 -0.567984 4.818094 -14.971603 11.875758 2.683114 0.870439 -2.609524 -15.849298 -8.259470 5.023461 9.985021 -0.178904 3.178493 3.490924 -0.096960 -0.121020 -0.033560 18.442328 -11.227374 3.148108 -23.471973 1.863483 -8.194780 -0.955133 -2.866979 -2.651367 -0.225152 -4.396503 2.784015 0.002920 0.244610 0.171830 -4.155105 1.564768 -7.080607 9.281441 5.961747 1.269510 1.858468 5.519126 -4.410304 3.447346 10.085230 -9.579701 19.738727 -5.515367 14.185028 2.016800 -0.631320 -4.885890 -37.610302 -8.140613 5.678863 -53.418204 17.300909 -8.198553 -9.390947 -0.678389 -1.181170 -4.060639 2.901514 -0.037730 0.257050 -0.104260 -0.000830 29.746054 4.476738 3.250444 52.273627 -5.767141 -4.419883 2.144114 0.708537 -0.204954 2.691872 -1.325609 -0.107620 -0.000200 0.085960 -0.018950 
1.249260 16.425410 -1.808830 2.165832 -0.657489 4.884765 -14.971919 11.857653 2.689020 0.439575 -2.684602 -16.015240 -8.093765 5.037699 10.385970 -0.191517 3.168459 3.492584 -0.094320 -0.117090 -0.025030 18.443461 -11.226983 3.155778 -23.714338 1.943915 -8.177129 -1.091851 -2.854090 -2.689827 -0.227941 -4.410684 2.775369 0.009100 0.242540 0.170530 -4.157484 1.598245 -7.077748 9.288368 6.096191 1.255300 1.735821 5.682409 -4.798012 3.551951 10.167436 -9.602601 20.038428 -5.373094 13.446058 2.024110 -0.360990 -5.353690 -37.997387 -7.927478 5.584907 -53.536984 18.210536 -8.329107 -9.464238 0.188700 -1.242689 -4.072294 2.878886 -0.034530 0.259080 -0.103880 -0.005490 29.860467 4.276973 3.156513 52.511234 -6.041890 -4.379160 1.902800 -0.357504 -0.133336 2.702561 -1.322684 -0.112850 0.002790 0.086060 -0.026090 
